<svg xmlns="http://www.w3.org/2000/svg" width="674.715" height="672.056" version="1.0"><path d="M501.036 387.682a127.28 127.28 0 1 1-254.559 0" style="fill:maroon;fill-opacity:1;stroke:#000;stroke-width:7.0999999;stroke-miterlimit:4;stroke-dasharray:none;stroke-opacity:1" transform="matrix(2.5786 0 0 -2.5786 -626.414 1337.037)"/><path d="M501.036 387.682a127.28 127.28 0 1 1-254.559 0" style="fill:#f2f2f2;fill-opacity:1;stroke:#000;stroke-width:7.0999999;stroke-miterlimit:4;stroke-dasharray:none;stroke-opacity:1" transform="translate(-626.086 -664.408) scale(2.5775)"/><path d="M27.917-543.584h640.968v54.335H27.917z" style="fill:#000;fill-opacity:1;stroke:#000;stroke-width:18.30812073;stroke-miterlimit:4;stroke-dasharray:none;stroke-opacity:1" transform="matrix(1 0 0 -1 -10.156 -175.023)"/><path d="M346.663 536.974a20.536 20.536 0 1 1 .013 0" style="fill:#f2f2f2;fill-opacity:1;stroke:#000;stroke-width:4.33016944;stroke-miterlimit:4;stroke-dasharray:none;stroke-opacity:1" transform="matrix(0 -4.18002 -4.17993 0 2501.376 1781.874)"/><path d="M346.663 536.974a20.536 20.536 0 1 1 .281-.017" style="fill:#999;fill-opacity:1;stroke:none;stroke-width:7.0999999;stroke-miterlimit:4;stroke-dasharray:none;stroke-opacity:1" transform="matrix(0 -2.25163 -2.25158 0 1505.352 1113.661)"/></svg>